<svg width="34" height="29" viewBox="0 0 34 29" fill="none" xmlns="http://www.w3.org/2000/svg">
<path d="M30.0052 11.5089L29.484 11.822L25.6377 14.1329L25.6368 14.1334C24.4916 14.8192 23.0103 14.431 22.3487 13.2692C22.3486 13.2692 22.3486 13.2691 22.3486 13.2691C22.3485 13.269 22.3485 13.2689 22.3484 13.2688L18.019 5.67627L17.7354 5.1789L18.1772 4.81472C18.6012 4.46518 18.87 3.9495 18.87 3.36931C18.87 2.33236 18.0308 1.49348 17 1.49348C15.9692 1.49348 15.13 2.33236 15.13 3.36931C15.13 3.9495 15.3988 4.46518 15.8228 4.81472L16.2646 5.1789L15.981 5.67627L11.6516 13.2688L30.0052 11.5089ZM30.0052 11.5089L29.752 10.956M30.0052 11.5089L29.752 10.956M29.752 10.956C29.6407 10.7129 29.58 10.4577 29.58 10.1849C29.58 9.14792 30.4192 8.30903 31.45 8.30903C32.4808 8.30903 33.32 9.14791 33.32 10.1849C33.32 11.2218 32.4808 12.0607 31.45 12.0607C31.3736 12.0607 31.2864 12.0488 31.1486 12.0267L30.5991 11.9385L30.4041 12.4598L26.7284 22.284H7.27162L3.59595 12.4598L3.40092 11.9385L2.85139 12.0267C2.71359 12.0488 2.62636 12.0607 2.55 12.0607C1.5192 12.0607 0.68 11.2218 0.68 10.1849C0.68 9.14976 1.52268 8.30903 2.55531 8.30903C3.58611 8.30903 4.42531 9.14792 4.42531 10.1849C4.42531 10.4537 4.36112 10.7158 4.25122 10.9606L4.00417 11.5109M29.752 10.956L4.00417 11.5109M4.00417 11.5109L4.521 11.8218M4.00417 11.5109L4.521 11.8218M4.521 11.8218L8.3615 14.1324M4.521 11.8218L8.3615 14.1324M8.3615 14.1324L8.36194 14.1327C9.50303 14.8201 10.9901 14.4303 11.6513 13.2692L8.3615 14.1324ZM5.78 25.5198C5.78 25.4254 5.85952 25.3479 5.95 25.3479H28.05C28.1405 25.3479 28.22 25.4254 28.22 25.5198V27.2237C28.22 27.3182 28.1405 27.3957 28.05 27.3957H5.95C5.85952 27.3957 5.78 27.3182 5.78 27.2237V25.5198Z" stroke="white" stroke-width="1.36"/>
</svg>
