<svg width="419" height="326" viewBox="0 0 419 326" fill="none" xmlns="http://www.w3.org/2000/svg">
<path d="M373.66 41.4436H85.3516V240.276H373.66V41.4436Z" fill="#0062CE"/>
<path d="M107.223 71.2684C111.615 71.2684 115.176 67.7076 115.176 63.3151C115.176 58.9227 111.615 55.3619 107.223 55.3619C102.83 55.3619 99.2695 58.9227 99.2695 63.3151C99.2695 67.7076 102.83 71.2684 107.223 71.2684Z" fill="#E10512"/>
<path d="M135.059 71.2684C139.451 71.2684 143.012 67.7076 143.012 63.3151C143.012 58.9227 139.451 55.3619 135.059 55.3619C130.666 55.3619 127.105 58.9227 127.105 63.3151C127.105 67.7076 130.666 71.2684 135.059 71.2684Z" fill="#FDC82F"/>
<path d="M162.899 71.2684C167.291 71.2684 170.852 67.7076 170.852 63.3151C170.852 58.9227 167.291 55.3619 162.899 55.3619C158.506 55.3619 154.945 58.9227 154.945 63.3151C154.945 67.7076 158.506 71.2684 162.899 71.2684Z" fill="#00BB86"/>
<path fill-rule="evenodd" clip-rule="evenodd" d="M394.175 56.0848C403.159 56.0848 410.442 48.8013 410.442 39.8167C410.442 30.8321 403.159 23.5487 394.175 23.5487C385.189 23.5487 377.906 30.8321 377.906 39.8167C377.906 48.8013 385.189 56.0848 394.175 56.0848Z" fill="#00BB86"/>
<path fill-rule="evenodd" clip-rule="evenodd" d="M394.175 137.426C403.159 137.426 410.442 130.142 410.442 121.157C410.442 112.173 403.159 104.889 394.175 104.889C385.189 104.889 377.906 112.173 377.906 121.157C377.906 130.142 385.189 137.426 394.175 137.426Z" fill="#FDC82F"/>
<path fill-rule="evenodd" clip-rule="evenodd" d="M337.237 96.7542C346.221 96.7542 353.505 89.4707 353.505 80.4861C353.505 71.5016 346.221 64.218 337.237 64.218C328.252 64.218 320.969 71.5016 320.969 80.4861C320.969 89.4707 328.252 96.7542 337.237 96.7542Z" fill="#E10512"/>
<path fill-rule="evenodd" clip-rule="evenodd" d="M375.813 51.3094L342.566 74.6025L344.426 77.2591L377.674 53.9661L375.813 51.3094Z" fill="#22252A"/>
<path fill-rule="evenodd" clip-rule="evenodd" d="M386.58 119.508L353.332 96.2156L355.193 93.5589L388.44 116.852L386.58 119.508Z" fill="#22252A"/>
<path d="M209.842 165.548L173.926 151.603V143.188L209.842 129.243V137.345L176.964 149.654V145.136L209.842 157.445V165.548ZM212.478 182.454L238.188 109.065H246.914L221.204 182.454H212.478ZM248.791 165.548V157.445L281.668 145.136V149.654L248.791 137.345V129.243L284.706 143.188V151.603L248.791 165.548Z" fill="#FDC82F"/>
<path d="M126.066 118.36L10.832 149.237L54.5745 312.485L169.809 281.608L126.066 118.36Z" fill="#E10512"/>
<path fill-rule="evenodd" clip-rule="evenodd" d="M117.73 179.233C118.721 175.274 118.748 171.005 117.614 166.772C114.084 153.6 100.651 145.754 87.6098 149.249C74.5683 152.743 66.8574 166.254 70.3868 179.426C73.9163 192.598 87.3496 200.444 100.391 196.949C104.582 195.826 108.224 193.668 111.118 190.819L124.4 190.852L117.73 179.233Z" fill="#FDC82F"/>
<path d="M118.825 168.151L79.4688 178.697L81.1729 185.057L120.529 174.511L118.825 168.151Z" fill="#22252A"/>
<path d="M110.946 147.255L75.6875 167.729L78.9634 173.436L114.222 152.962L110.946 147.255Z" fill="#22252A"/>
<path fill-rule="evenodd" clip-rule="evenodd" d="M67.3479 269.925C64.49 266.996 62.3217 263.316 61.1873 259.083C57.6579 245.91 65.4747 232.372 78.6468 228.841C91.8188 225.312 105.358 233.129 108.888 246.301C112.417 259.473 104.6 273.013 91.428 276.542C87.1944 277.676 82.9229 277.639 78.9581 276.628L67.3479 283.331V269.925Z" fill="#00BB86"/>
<path fill-rule="evenodd" clip-rule="evenodd" d="M77.7816 255.488C78.2521 257.244 77.21 259.049 75.4537 259.52C73.6974 259.99 71.8922 258.948 71.4216 257.192C70.951 255.436 71.9932 253.631 73.7495 253.159C75.5058 252.689 77.311 253.731 77.7816 255.488ZM88.1166 252.718C88.5872 254.475 87.545 256.28 85.7887 256.75C84.0324 257.222 82.2272 256.179 81.7566 254.423C81.286 252.666 82.3283 250.861 84.0845 250.391C85.8408 249.919 87.6461 250.962 88.1166 252.718ZM96.1237 253.982C97.8799 253.51 98.9222 251.705 98.4516 249.949C97.981 248.193 96.1758 247.151 94.4196 247.621C92.6633 248.092 91.621 249.897 92.0916 251.653C92.5622 253.41 94.3675 254.452 96.1237 253.982Z" fill="#22252A"/>
</svg>
